<svg xmlns="http://www.w3.org/2000/svg" width="160" height="160" viewBox="0 0 366 366">
  <style>
    .st0{fill:none;} .st1{fill:#ff780c;} @-webkit-keyframes rotating /* Safari and Chrome */ { from { -ms-transform: rotate(0deg); -moz-transform: rotate(0deg); -webkit-transform: rotate(0deg); -o-transform: rotate(0deg); transform: rotate(0deg); transform-origin: center center; -webkit-transform-origin: center center; -ms-transform-origin: center center; } to { -ms-transform: rotate(360deg); -moz-transform: rotate(360deg); -webkit-transform: rotate(360deg); -o-transform: rotate(360deg); transform: rotate(360deg); transform-origin: center center; -webkit-transform-origin: center center; -ms-transform-origin: center center; } } @keyframes rotating { from { -ms-transform: rotate(0deg); -moz-transform: rotate(0deg); -webkit-transform: rotate(0deg); -o-transform: rotate(0deg); transform: rotate(0deg); transform-origin: center center; -webkit-transform-origin: center center; -ms-transform-origin: center center; } to { -ms-transform: rotate(360deg); -moz-transform: rotate(360deg); -webkit-transform: rotate(360deg); -o-transform: rotate(360deg); transform: rotate(360deg); transform-origin: center center; -webkit-transform-origin: center center; -ms-transform-origin: center center; } } @-moz-keyframes rotating { from { -ms-transform: rotate(0deg); -moz-transform: rotate(0deg); -webkit-transform: rotate(0deg); -o-transform: rotate(0deg); transform: rotate(0deg); transform-origin: center center; -webkit-transform-origin: center center; -ms-transform-origin: center center; } to { -ms-transform: rotate(360deg); -moz-transform: rotate(360deg); -webkit-transform: rotate(360deg); -o-transform: rotate(360deg); transform: rotate(360deg); transform-origin: center center; -webkit-transform-origin: center center; -ms-transform-origin: center center; } } @keyframes beat { 0% { transform: scale(1); } 90% { transform: scale(1); } 100% { transform: scale(1.03); } } @-webkit-keyframes beat { 0% { transform: scale(1); } 90% { transform: scale(1); } 100% { transform: scale(1.15); } } @-moz-keyframes beat { 0% { transform: scale(1); } 90% { transform: scale(1); } 100% { transform: scale(1.15); } } .heartbeat { animation: beat 1.5s infinite alternate; transform-origin: center; } .rotating { -webkit-animation: rotating 3s linear infinite; -moz-animation: rotating 3s linear infinite; -ms-animation: rotating 3s linear infinite; -o-animation: rotating 3s linear infinite; animation: rotating 3s linear infinite; }
  </style>
  <g class="rotating">
    <path d="M345.8 182.8c0 89.1-72.2 161.2-161.2 161.2S23.2 271.8 23.2 182.8 95.4 21.5 184.5 21.5c94.5 0 161.3 74.9 161.3 161.3z" class="st0"/>
    <path d="M184.5 335.5c-84.2 0-152.8-68.5-152.8-152.8S100.3 30 184.5 30c42.4 0 81.5 16.2 109.9 45.7 27.6 28.6 42.8 66.6 42.8 107 0 22-4.6 43.3-13.6 63.2-.6 1.3-2.1 1.8-3.3 1.2-1.3-.6-1.8-2.1-1.2-3.3 8.7-19.2 13.2-39.8 13.2-61.1 0-39.1-14.7-75.9-41.4-103.6C263.3 50.7 225.6 35 184.5 35 103 35 36.8 101.3 36.8 182.8S103 330.5 184.5 330.5c1.4 0 2.5 1.1 2.5 2.5s-1.1 2.5-2.5 2.5z" class="st1"/>
    <circle cx="313.8" cy="258.5" r="7.8" class="st1"/>
  </g>

  <g transform="translate(112, 103) scale(1.4)">
    <g class="heartbeat">
      <g stroke="none">
        <path d="M50,1 L0,20 L10,90 L50,109 L90,90 L100,20 Z" fill="#ff8d0e"></path>
        <path d="M50,1 L50,109 L90,90 L100,20 Z" fill="#ff780c"></path>
      </g>
      <g stroke="none" transform="translate(0, -1)">
        <path d="M70,12 L35,60 L50,60 L30,98 L65,50 L50,50 Z" fill="#d86000" transform="translate(1, 1)"></path>
        <path d="M70,12 L35,60 L50,60 L30,98 L65,50 L50,50 Z" fill="#fff" transform="translate(-1, -1)"></path>
      </g>
    </g>
  </g>
</svg>
